<?xml version="1.0" encoding="utf-8"?>
<!-- Generator: Adobe Illustrator 27.8.1, SVG Export Plug-In . SVG Version: 6.00 Build 0)  -->
<svg version="1.1" id="Layer_1" xmlns="http://www.w3.org/2000/svg" xmlns:xlink="http://www.w3.org/1999/xlink" x="0px" y="0px"
	 viewBox="0 0 271 258" style="enable-background:new 0 0 271 258;" xml:space="preserve">
<style type="text/css">
	.st0{fill:#58DEA5;}
	.st1{fill:#019D8B;}
	.st2{fill:#029D8B;}
	.st3{fill:none;}
	.st4{fill:#00193C;}
</style>
<g>
	<path class="st0" d="M92,55c0.8,0.8,1.7,1.6,2.5,2.5c0.5,0.5,0.8,0.8,1.1,1.1c-12-12.7-26.1-29.8-42.1-36
		C68.3,28.4,81.1,44.1,92,55z"/>
	<path class="st0" d="M132.4,220.9c-6.1-0.7-9.7-3.2-13.4-7.9c-1.1-2.8-1.4-4.6-1-7.5c2.5-2.5,3.8-2.3,7.2-2.3c0.7,0,1.4,0,2.1,0
		c0.7,0,1.4,0,2.2,0c1.5,0,3.1,0,4.6,0c0.8,0,1.5,0,2.3,0V0.4c-0.1-0.1-0.3-0.3-0.4-0.4c-8.8,8.8-8.8,8.8-23.2,44.1
		c-0.7,1.7-0.7,1.7-1.3,3.3c-2.3,5.6-4.4,11.1-5.7,17c-0.2,1.3-0.5,2.5-0.7,3.8c-1.5-1.5-3-3-4.5-4.5c1.6,1.7,3.1,3.5,4.5,5.5
		c-0.3,3.1-0.7,5.5-1.6,8.5c-0.4,1.6-0.8,3.3-1.2,4.9c-0.2,0.8-0.4,1.6-0.6,2.4c-4.7,18.3-5.9,36.6-6.6,55.4
		c-7.3-6.1-7.3-6.1-10.3-9.8c-7.8-9.1-17.3-16.1-26.8-23.3c-0.7-0.5-1.3-1-2-1.6c-2-1.5-2-1.5-4.8-3c-3.6-4.1-3-9.1-3.1-14.4
		c0-1.3-0.1-2.5-0.1-3.9c-0.1-4.3-0.1-8.6-0.1-12.9c0-0.8,0-1.5,0-2.3c0-15.9,1.6-31.4,4.3-47.1c-0.1,0.8-0.3,1.6-0.4,2.4
		c-0.2,1.2-0.4,2.4-0.6,3.6c-3.6,20.8-3.6,20.8-3,66.4c0,1.3,0,2.5,0,3.7c-10-6.7-20.5-12.6-31.4-17.5c-0.8-0.4-1.6-0.7-2.4-1.1
		c-4.4-2-8.4-3.8-13.2-4.4c0.4,11.8,1,23.5,2.6,35.1c7.1,49,26.8,96.1,67.1,126.6c0.8,0.6,1.5,1.1,2.3,1.7
		c8.5,6.2,17.8,10.5,27.6,14.2c0.8,0.3,1.6,0.6,2.4,0.9c10.3,3.8,20.4,4.3,31.3,4.4c1.1,0,1.1,0,2.1,0v-37.1
		C135.2,221,133.8,221,132.4,220.9z M100,200.5c-3.9,3.7-8.2,3.5-13.3,3.4c-3.8-0.5-5.9-1.7-8.7-4.4c-3.3-4.8-3.8-9.4-3-15
		c3.3-8,9.8-10.9,18-10c5.3,2,8.5,4.9,11,10C104.8,191,103.9,195.2,100,200.5z"/>
	<path class="st1" d="M47.8,71.5c0,4.3,0,8.6,0.1,12.9c0,1.3,0.1,2.6,0.1,3.9c0.1,5.3-0.5,10.3,3.1,14.4c2.8,1.5,2.8,1.5,4.8,3
		c0.7,0.5,1.3,1,2,1.6c9.5,7.2,19,14.2,26.8,23.3c3,3.8,3,3.8,10.3,9.8c0.7-18.8,1.8-37.1,6.6-55.4c0.2-0.8,0.4-1.6,0.6-2.4
		c0.4-1.6,0.8-3.3,1.2-4.9c0.8-2.9,1.3-5.4,1.6-8.5c-1.4-2-2.9-3.8-4.5-5.5c-0.5-0.6-1-1.1-1.5-1.7c-0.7-0.7-1.4-1.4-2.1-2.1
		c-0.6-0.6-0.9-0.9-1.3-1.3c-0.3-0.3-0.6-0.6-1.1-1.1c-0.9-0.8-1.7-1.7-2.5-2.5C81.1,44.1,68.3,28.4,53.5,22.6
		c-0.5-0.2-1-0.4-1.5-0.6c-2.7,15.7-4.3,31.2-4.3,47.1C47.7,70,47.7,70.7,47.8,71.5z"/>
	<path class="st2" d="M93,174.4c-8.2-0.8-14.7,2.1-18,10c-0.8,5.7-0.3,10.3,3,15c2.8,2.6,4.8,3.9,8.7,4.4c5.1,0.2,9.5,0.3,13.3-3.4
		c3.9-5.3,4.8-9.5,4-16C101.5,179.3,98.3,176.4,93,174.4z"/>
	<path class="st2" d="M129.5,203.2c-0.7,0-1.5,0-2.2,0c-0.7,0-1.4,0-2.1,0c-3.4,0-4.7-0.2-7.2,2.3c-0.4,2.9-0.1,4.8,1,7.5
		c3.8,4.7,7.3,7.2,13.4,7.9c1.4,0,2.7,0,4,0v-17.7c-0.8,0-1.5,0-2.3,0C132.6,203.2,131.1,203.2,129.5,203.2z"/>
</g>
<g>
	<path class="st3" d="M56.2,49.7l79.3,79.3l0.9-0.9V16.9c-0.3,0-0.6,0-0.9,0C105.4,16.9,77.3,28.5,56.2,49.7z"/>
	<path class="st4" d="M168.2,139.8c14.6,11.3,35.7,8.6,47-6c4.5-5.8,7-13.1,7-20.5s-2.5-14.6-7-20.5L168.2,139.8z"/>
	<path class="st4" d="M264.5,129c0.1-23.6-6.5-46.7-18.6-66.9l-20.8,20.8c16.8,20.1,14.1,50-6,66.7c-17.6,14.7-43.2,14.7-60.8,0
		l-21.9,21.9V258C207.2,257.5,264.5,199.9,264.5,129z"/>
	<path class="st4" d="M228.8,40C203.7,13.6,170.1,0.3,136.4,0v16.9c29.8,0.2,57.5,11.8,78.4,32.8l-78.4,78.4V152L237.9,50.5
		C235.1,46.8,232,43.3,228.8,40z"/>
</g>
</svg>
