<svg width="104" height="23" viewBox="0 0 104 23" fill="none" xmlns="http://www.w3.org/2000/svg">
<g id="VIVEX">
<path d="M25.3738 0L17.459 23H7.91476L0 0H7.84825L12.7035 15.8206L17.5255 0H25.3738Z" fill="white" style="fill:white;fill:white;fill-opacity:1;"/>
<path d="M34.0766 0V23H26.6939V0H34.0766Z" fill="white" style="fill:white;fill:white;fill-opacity:1;"/>
<path d="M60.7894 0L52.8746 23H43.3304L35.4156 0H43.2639L48.1191 15.8206L52.9412 0H60.7894Z" fill="white" style="fill:white;fill:white;fill-opacity:1;"/>
<path d="M69.4922 5.75V8.57627H76.8083V14.0014H69.4922V17.25H77.806V23H62.1095V0H77.806V5.75H69.4922Z" fill="white" style="fill:white;fill:white;fill-opacity:1;"/>
<path d="M95.2539 23L90.9307 17.0226L87.3391 23H78.9255L86.674 11.1427L78.5929 0H87.3391L91.496 5.75L94.9546 0H103.368L95.7527 11.6299L104 23H95.2539Z" fill="white" style="fill:white;fill:white;fill-opacity:1;"/>
</g>
</svg>
